<svg t="1746516258392" class="icon" viewBox="0 0 1024 1024" version="1.1" xmlns="http://www.w3.org/2000/svg" p-id="6360" width="200" height="200"><path d="M105.449815 666.114725a27.525402 27.525402 0 0 1-27.525402-27.525402V355.793344a112.964249 112.964249 0 0 1 56.316972-97.550024L380.758884 115.936993a27.525402 27.525402 0 1 1 27.525402 47.673996L161.766787 305.917316a57.748293 57.748293 0 0 0-28.791571 49.876028V638.589323a27.525402 27.525402 0 0 1-27.525401 27.525402zM512.66061 1023.944949a112.523843 112.523843 0 0 1-56.261922-15.028869l-246.57255-142.306328a27.525402 27.525402 0 1 1 27.525402-47.673996l246.57255 142.361379a57.693242 57.693242 0 0 0 57.52809 0l244.865975-141.370464a27.525402 27.525402 0 1 1 27.525402 47.673996l-244.865975 141.370464A112.578894 112.578894 0 0 1 512.66061 1023.944949zM917.50422 666.555131a27.525402 27.525402 0 0 1-27.525402-27.525401V354.306973a57.693242 57.693242 0 0 0-28.736519-49.545724l-244.755874-141.645718a27.525402 27.525402 0 0 1 27.525402-47.673996l244.921026 141.370464A112.964249 112.964249 0 0 1 945.029622 354.306973v284.722757a27.525402 27.525402 0 0 1-27.525402 27.525401z" fill="#005EA4" p-id="6361"></path><path d="M106.330627 775.115316m-80.649427 0a80.649427 80.649427 0 1 0 161.298855 0 80.649427 80.649427 0 1 0-161.298855 0Z" fill="#005EA4" p-id="6362"></path><path d="M917.669373 774.619859m-80.649428 0a80.649427 80.649427 0 1 0 161.298855 0 80.649427 80.649427 0 1 0-161.298855 0Z" fill="#005EA4" p-id="6363"></path><path d="M512.385356 80.649427m-80.649428 0a80.649427 80.649427 0 1 0 161.298855 0 80.649427 80.649427 0 1 0-161.298855 0Z" fill="#005EA4" p-id="6364"></path><path d="M782.794903 353.976668L530.717273 499.475942a44.040643 44.040643 0 0 1-39.526477-1.651524L244.83845 355.573141c-11.725821-6.716198-12.99199-16.955648-2.862642-22.791033L494.053438 187.172733a44.040643 44.040643 0 0 1 39.526477 1.651524L779.877211 331.130584c11.780872 6.771249 13.04704 16.955648 2.917692 22.846084z" fill="#005EA4" p-id="6365"></path><path d="M466.748239 880.15225L213.954949 734.212569a44.040643 44.040643 0 0 1-18.386969-35.067362V413.651739c0-13.542498 8.20257-19.763239 18.386969-13.872802l252.79329 145.93968a44.040643 44.040643 0 0 1 18.386969 35.177464v285.383366c0 13.542498-8.037417 20.038493-18.386969 13.872803z" fill="#FFBC00" p-id="6366"></path><path d="M809.494543 730.303962l-249.435191 144.012903c-10.019246 5.780334-18.166765-0.330305-18.166766-13.70765v-281.529811a43.490135 43.490135 0 0 1 18.166766-34.682006l249.435191-144.012903c10.019246-5.50508 18.111714 0.330305 18.111715 13.707651v281.52981a43.435084 43.435084 0 0 1-18.111715 34.682006z" fill="#005EA4" p-id="6367"></path></svg>
